<svg xmlns="http://www.w3.org/2000/svg" viewBox="0 0 256 256" focusable="false" style="user-select: none; width: 100%; height: 100%; display: inline-block; flex-shrink: 0;"><g color="var(--token-066bd32b-1e48-4c83-9edf-25ad136f1d62, rgba(0, 0, 0, 0.5)) /* {&quot;name&quot;:&quot;Foreground&quot;} */" weight="regular"><path d="M230.91,172A8,8,0,0,1,228,182.91l-96,56a8,8,0,0,1-8.06,0l-96-56A8,8,0,0,1,36,169.09l92,53.65,92-53.65A8,8,0,0,1,230.91,172ZM220,121.09l-92,53.65L36,121.09A8,8,0,0,0,28,134.91l96,56a8,8,0,0,0,8.06,0l96-56A8,8,0,1,0,220,121.09ZM24,80a8,8,0,0,1,4-6.91l96-56a8,8,0,0,1,8.06,0l96,56a8,8,0,0,1,0,13.82l-96,56a8,8,0,0,1-8.06,0l-96-56A8,8,0,0,1,24,80Zm23.88,0L128,126.74,208.12,80,128,33.26Z"></path></g></svg>